<?xml version="1.0" standalone="no"?>
<!DOCTYPE svg PUBLIC "-//W3C//DTD SVG 20010904//EN"
 "http://www.w3.org/TR/2001/REC-SVG-20010904/DTD/svg10.dtd">
<svg version="1.0" xmlns="http://www.w3.org/2000/svg"
 width="1024.000000pt" height="1024.000000pt" viewBox="0 0 1024.000000 1024.000000"
 preserveAspectRatio="xMidYMid meet">
<metadata>
Created by potrace 1.16, written by Peter Selinger 2001-2019
</metadata>
<g transform="translate(0.000000,1024.000000) scale(0.100000,-0.100000)"
fill="#000000" stroke="none">
<path d="M0 5120 l0 -5120 5120 0 5120 0 0 5120 0 5120 -5120 0 -5120 0 0
-5120z m5220 3880 c87 -14 180 -45 265 -88 107 -55 248 -200 302 -312 58 -120
77 -202 77 -340 1 -91 -4 -132 -22 -194 -69 -240 -246 -427 -482 -510 -71 -25
-105 -30 -206 -34 -142 -5 -247 16 -354 71 l-65 34 -95 -81 c-52 -44 -139
-117 -192 -163 -239 -203 -303 -257 -306 -259 -2 -1 8 -37 23 -79 14 -42 31
-114 37 -161 29 -212 -54 -448 -211 -604 -153 -152 -316 -219 -532 -220 -297
0 -555 169 -681 448 -131 290 -39 665 214 867 139 111 292 165 467 165 157 0
305 -43 415 -120 31 -22 59 -40 62 -40 2 0 120 98 260 218 141 119 267 226
281 237 l24 20 -31 56 c-120 223 -116 497 13 729 43 77 197 228 274 268 81 43
161 71 248 87 88 17 133 18 215 5z m120 -3000 c131 -45 220 -99 305 -185 182
-183 257 -417 211 -657 -56 -292 -244 -499 -536 -589 -108 -33 -284 -33 -390
0 -139 43 -251 109 -338 201 -110 114 -171 235 -198 391 -67 385 169 746 556
849 104 28 295 23 390 -10z m1496 -1630 c136 -34 236 -91 334 -189 51 -51 103
-115 127 -156 239 -413 31 -944 -427 -1087 -64 -20 -96 -23 -220 -23 -139 0
-149 2 -235 33 -49 18 -97 35 -105 38 -12 4 -263 -200 -488 -397 l-33 -29 31
-85 c61 -175 63 -338 5 -512 -78 -231 -278 -413 -524 -474 -118 -30 -290 -23
-406 14 -212 70 -395 245 -467 448 -59 168 -60 335 -3 505 71 211 253 390 470
461 116 38 288 44 405 14 82 -21 168 -57 241 -102 l36 -23 74 65 c41 35 130
111 199 169 68 58 141 121 162 140 l38 35 -34 53 c-18 28 -48 96 -67 150 -31
91 -33 105 -33 232 0 126 2 141 32 227 46 135 85 197 186 299 113 112 217 169
381 207 58 14 246 6 321 -13z"/>
</g>
</svg>
